<svg width="719" height="227" viewBox="0 0 719 227" fill="none" xmlns="http://www.w3.org/2000/svg">
<path d="M30.504 181V166.264C30.504 164.376 30.936 162.648 31.8 161.08C32.664 159.512 33.912 158.264 35.544 157.336C37.176 156.408 39.144 155.944 41.448 155.944C42.568 155.944 43.688 156.104 44.808 156.424C45.928 156.712 46.968 157.224 47.928 157.96C48.888 158.664 49.656 159.624 50.232 160.84H50.28C50.92 159.624 51.72 158.664 52.68 157.96C53.64 157.224 54.68 156.712 55.8 156.424C56.92 156.104 58.056 155.944 59.208 155.944C61.48 155.944 63.432 156.408 65.064 157.336C66.696 158.264 67.944 159.512 68.808 161.08C69.672 162.648 70.104 164.376 70.104 166.264V181H65.688V166.264C65.688 165.048 65.4 163.944 64.824 162.952C64.248 161.96 63.464 161.176 62.472 160.6C61.512 160.024 60.408 159.736 59.16 159.736C57.944 159.736 56.824 160.04 55.8 160.648C54.776 161.224 53.96 162.008 53.352 163C52.776 163.96 52.488 165.048 52.488 166.264V181H48.072V166.264C48.072 165.048 47.768 163.96 47.16 163C46.584 162.008 45.784 161.224 44.76 160.648C43.768 160.04 42.648 159.736 41.4 159.736C40.184 159.736 39.08 160.024 38.088 160.6C37.128 161.176 36.36 161.96 35.784 162.952C35.208 163.944 34.92 165.048 34.92 166.264V181H30.504Z" fill="#EEF0F2"/>
<path d="M151.856 81C149.68 81 147.968 80.376 146.72 79.128C145.504 77.88 144.896 76.184 144.896 74.04V50.376H149.312V73.752C149.312 74.808 149.6 75.656 150.176 76.296C150.784 76.904 151.616 77.208 152.672 77.208H157.616V81H151.856ZM140.672 60.312V56.52H157.712V60.312H140.672Z" fill="#EEF0F2"/>
<path d="M0 39C0 25.1929 11.1929 14 25 14H75C88.8071 14 100 25.1929 100 39V114H25C11.1929 114 0 102.807 0 89V39Z" fill="#EEF0F2"/>
<path d="M100 114H175C188.807 114 200 125.193 200 139V189C200 202.807 188.807 214 175 214H125C111.193 214 100 202.807 100 189V114Z" fill="#EEF0F2"/>
<path d="M253.36 92C249.733 92 246.88 90.96 244.8 88.88C242.773 86.8 241.76 83.9733 241.76 80.4V40.96H252.72V80.08C252.72 80.7733 252.96 81.3867 253.44 81.92C253.973 82.4 254.587 82.64 255.28 82.64H264.16V92H253.36ZM234.8 60.56V51.2H264.16V60.56H234.8ZM272.159 92V62.8C272.159 59.1733 273.173 56.3467 275.199 54.32C277.279 52.24 280.133 51.2 283.759 51.2H295.039V60.56H285.679C284.986 60.56 284.373 60.8 283.839 61.28C283.359 61.76 283.119 62.3733 283.119 63.12V92H272.159ZM301.075 92V51.2H312.115V92H301.075ZM306.595 46.32C304.728 46.32 303.102 45.6533 301.715 44.32C300.382 42.9333 299.715 41.3067 299.715 39.44C299.715 37.5733 300.382 35.9733 301.715 34.64C303.102 33.2533 304.728 32.56 306.595 32.56C308.462 32.56 310.062 33.2533 311.395 34.64C312.782 35.9733 313.475 37.5733 313.475 39.44C313.475 41.3067 312.782 42.9333 311.395 44.32C310.062 45.6533 308.462 46.32 306.595 46.32ZM322.563 92V82.64H342.483C343.123 82.64 343.683 82.5067 344.163 82.24C344.696 81.9733 345.096 81.6 345.363 81.12C345.683 80.64 345.843 80.1067 345.843 79.52C345.843 78.88 345.683 78.32 345.363 77.84C345.096 77.36 344.696 76.9867 344.163 76.72C343.683 76.4 343.123 76.24 342.483 76.24H334.803C332.19 76.24 329.816 75.84 327.683 75.04C325.603 74.1867 323.923 72.8533 322.643 71.04C321.416 69.1733 320.803 66.7467 320.803 63.76C320.803 61.4667 321.363 59.3867 322.483 57.52C323.656 55.6 325.203 54.08 327.123 52.96C329.096 51.7867 331.256 51.2 333.603 51.2H352.723V60.56H334.643C333.843 60.56 333.123 60.8267 332.483 61.36C331.896 61.8933 331.603 62.5867 331.603 63.44C331.603 64.2933 331.896 65.0133 332.483 65.6C333.07 66.1333 333.79 66.4 334.643 66.4H342.323C345.256 66.4 347.79 66.8533 349.923 67.76C352.056 68.6133 353.71 69.9733 354.883 71.84C356.056 73.7067 356.643 76.16 356.643 79.2C356.643 81.5467 356.056 83.7067 354.883 85.68C353.71 87.6 352.136 89.1467 350.163 90.32C348.19 91.44 345.976 92 343.523 92H322.563ZM353.856 108.24V98.88H362.736C363.482 98.88 364.096 98.6133 364.576 98.08C365.056 97.6 365.296 97.0133 365.296 96.32V51.2H376.256V96.64C376.256 100.213 375.216 103.04 373.136 105.12C371.109 107.2 368.282 108.24 364.656 108.24H353.856ZM370.656 46.24C368.789 46.24 367.162 45.5733 365.776 44.24C364.442 42.8533 363.776 41.2267 363.776 39.36C363.776 37.4933 364.442 35.8933 365.776 34.56C367.162 33.1733 368.789 32.48 370.656 32.48C372.522 32.48 374.122 33.1733 375.456 34.56C376.842 35.8933 377.536 37.4933 377.536 39.36C377.536 41.2267 376.842 42.8533 375.456 44.24C374.122 45.5733 372.522 46.24 370.656 46.24ZM402.624 92.96C398.89 92.96 395.637 92 392.864 90.08C390.09 88.16 387.93 85.6 386.384 82.4C384.89 79.1467 384.144 75.5733 384.144 71.68C384.144 67.68 384.997 64.0533 386.704 60.8C388.464 57.5467 390.97 54.9867 394.224 53.12C397.477 51.2 401.37 50.24 405.904 50.24C410.49 50.24 414.357 51.2 417.504 53.12C420.65 55.04 423.05 57.6267 424.704 60.88C426.357 64.1333 427.184 67.7333 427.184 71.68V92H416.224V85.2H416.064C415.264 86.64 414.25 87.9467 413.024 89.12C411.85 90.2933 410.41 91.2267 408.704 91.92C406.997 92.6133 404.97 92.96 402.624 92.96ZM405.744 83.6C407.877 83.6 409.717 83.0667 411.264 82C412.81 80.9333 413.984 79.4933 414.784 77.68C415.637 75.8133 416.064 73.76 416.064 71.52C416.064 69.28 415.637 67.28 414.784 65.52C413.984 63.7067 412.81 62.2667 411.264 61.2C409.717 60.1333 407.877 59.6 405.744 59.6C403.557 59.6 401.664 60.1333 400.064 61.2C398.517 62.2667 397.317 63.7067 396.464 65.52C395.664 67.28 395.264 69.28 395.264 71.52C395.264 73.76 395.664 75.8133 396.464 77.68C397.317 79.4933 398.517 80.9333 400.064 82C401.664 83.0667 403.557 83.6 405.744 83.6ZM437.559 92V68.56C437.559 65.2 438.333 62.1333 439.879 59.36C441.479 56.5867 443.773 54.3733 446.759 52.72C449.746 51.0667 453.319 50.24 457.479 50.24C461.693 50.24 465.266 51.0667 468.199 52.72C471.186 54.3733 473.453 56.5867 474.999 59.36C476.599 62.1333 477.399 65.2 477.399 68.56V92H466.439V68.56C466.439 66.9067 466.039 65.4133 465.239 64.08C464.439 62.6933 463.346 61.6 461.959 60.8C460.626 60 459.133 59.6 457.479 59.6C455.826 59.6 454.306 60 452.919 60.8C451.586 61.6 450.519 62.6933 449.719 64.08C448.919 65.4133 448.519 66.9067 448.519 68.56V92H437.559Z" fill="#EEF0F2"/>
<path d="M344.2 192V167.76C344.2 164.56 344.973 161.627 346.52 158.96C348.067 156.293 350.28 154.187 353.16 152.64C356.093 151.04 359.613 150.24 363.72 150.24C365.693 150.24 367.507 150.48 369.16 150.96C370.867 151.387 372.44 152.027 373.88 152.88C375.32 153.733 376.573 154.747 377.64 155.92H377.72C378.84 154.747 380.12 153.733 381.56 152.88C383 152.027 384.573 151.387 386.28 150.96C387.987 150.48 389.827 150.24 391.8 150.24C395.907 150.24 399.4 151.04 402.28 152.64C405.213 154.187 407.453 156.293 409 158.96C410.547 161.627 411.32 164.56 411.32 167.76V192H400.36V167.76C400.36 166.267 399.96 164.907 399.16 163.68C398.413 162.453 397.4 161.467 396.12 160.72C394.84 159.973 393.4 159.6 391.8 159.6C390.253 159.6 388.813 159.973 387.48 160.72C386.2 161.467 385.16 162.453 384.36 163.68C383.613 164.907 383.24 166.267 383.24 167.76V192H372.28V167.76C372.28 166.267 371.88 164.907 371.08 163.68C370.333 162.453 369.32 161.467 368.04 160.72C366.76 159.973 365.32 159.6 363.72 159.6C362.173 159.6 360.733 159.973 359.4 160.72C358.12 161.467 357.08 162.453 356.28 163.68C355.533 164.907 355.16 166.267 355.16 167.76V192H344.2ZM441.62 192.96C437.46 192.96 433.887 192.133 430.9 190.48C427.913 188.827 425.62 186.613 424.02 183.84C422.473 181.067 421.7 178 421.7 174.64V151.2H432.66V174.64C432.66 176.293 433.06 177.813 433.86 179.2C434.66 180.533 435.727 181.6 437.06 182.4C438.447 183.2 439.967 183.6 441.62 183.6C443.273 183.6 444.767 183.2 446.1 182.4C447.487 181.6 448.58 180.533 449.38 179.2C450.18 177.813 450.58 176.293 450.58 174.64V151.2H461.54V174.64C461.54 178 460.74 181.067 459.14 183.84C457.593 186.613 455.327 188.827 452.34 190.48C449.407 192.133 445.833 192.96 441.62 192.96ZM472.094 192V182.64H492.014C492.654 182.64 493.214 182.507 493.694 182.24C494.228 181.973 494.628 181.6 494.894 181.12C495.214 180.64 495.374 180.107 495.374 179.52C495.374 178.88 495.214 178.32 494.894 177.84C494.628 177.36 494.228 176.987 493.694 176.72C493.214 176.4 492.654 176.24 492.014 176.24H484.334C481.721 176.24 479.348 175.84 477.214 175.04C475.134 174.187 473.454 172.853 472.174 171.04C470.948 169.173 470.334 166.747 470.334 163.76C470.334 161.467 470.894 159.387 472.014 157.52C473.188 155.6 474.734 154.08 476.654 152.96C478.628 151.787 480.788 151.2 483.134 151.2H502.254V160.56H484.174C483.374 160.56 482.654 160.827 482.014 161.36C481.428 161.893 481.134 162.587 481.134 163.44C481.134 164.293 481.428 165.013 482.014 165.6C482.601 166.133 483.321 166.4 484.174 166.4H491.854C494.788 166.4 497.321 166.853 499.454 167.76C501.588 168.613 503.241 169.973 504.414 171.84C505.588 173.707 506.174 176.16 506.174 179.2C506.174 181.547 505.588 183.707 504.414 185.68C503.241 187.6 501.668 189.147 499.694 190.32C497.721 191.44 495.508 192 493.054 192H472.094ZM527.735 192C524.108 192 521.255 190.96 519.175 188.88C517.148 186.8 516.135 183.973 516.135 180.4V140.96H527.095V180.08C527.095 180.773 527.335 181.387 527.815 181.92C528.348 182.4 528.962 182.64 529.655 182.64H538.535V192H527.735ZM509.175 160.56V151.2H538.535V160.56H509.175ZM561.452 192.96C557.719 192.96 554.465 192 551.692 190.08C548.919 188.16 546.759 185.6 545.212 182.4C543.719 179.147 542.972 175.573 542.972 171.68C542.972 167.68 543.825 164.053 545.532 160.8C547.292 157.547 549.799 154.987 553.052 153.12C556.305 151.2 560.199 150.24 564.732 150.24C569.319 150.24 573.185 151.2 576.332 153.12C579.479 155.04 581.879 157.627 583.532 160.88C585.185 164.133 586.012 167.733 586.012 171.68V192H575.052V185.2H574.892C574.092 186.64 573.079 187.947 571.852 189.12C570.679 190.293 569.239 191.227 567.532 191.92C565.825 192.613 563.799 192.96 561.452 192.96ZM564.572 183.6C566.705 183.6 568.545 183.067 570.092 182C571.639 180.933 572.812 179.493 573.612 177.68C574.465 175.813 574.892 173.76 574.892 171.52C574.892 169.28 574.465 167.28 573.612 165.52C572.812 163.707 571.639 162.267 570.092 161.2C568.545 160.133 566.705 159.6 564.572 159.6C562.385 159.6 560.492 160.133 558.892 161.2C557.345 162.267 556.145 163.707 555.292 165.52C554.492 167.28 554.092 169.28 554.092 171.52C554.092 173.76 554.492 175.813 555.292 177.68C556.145 179.493 557.345 180.933 558.892 182C560.492 183.067 562.385 183.6 564.572 183.6ZM596.388 192V167.76C596.388 164.56 597.161 161.627 598.708 158.96C600.254 156.293 602.468 154.187 605.348 152.64C608.281 151.04 611.801 150.24 615.908 150.24C617.881 150.24 619.694 150.48 621.348 150.96C623.054 151.387 624.628 152.027 626.068 152.88C627.508 153.733 628.761 154.747 629.828 155.92H629.908C631.028 154.747 632.307 153.733 633.748 152.88C635.188 152.027 636.761 151.387 638.468 150.96C640.174 150.48 642.014 150.24 643.988 150.24C648.094 150.24 651.588 151.04 654.468 152.64C657.401 154.187 659.641 156.293 661.188 158.96C662.734 161.627 663.508 164.56 663.508 167.76V192H652.548V167.76C652.548 166.267 652.148 164.907 651.348 163.68C650.601 162.453 649.588 161.467 648.308 160.72C647.028 159.973 645.588 159.6 643.988 159.6C642.441 159.6 641.001 159.973 639.668 160.72C638.388 161.467 637.348 162.453 636.548 163.68C635.801 164.907 635.428 166.267 635.428 167.76V192H624.468V167.76C624.468 166.267 624.068 164.907 623.268 163.68C622.521 162.453 621.508 161.467 620.228 160.72C618.948 159.973 617.508 159.6 615.908 159.6C614.361 159.6 612.921 159.973 611.588 160.72C610.308 161.467 609.268 162.453 608.468 163.68C607.721 164.907 607.348 166.267 607.348 167.76V192H596.388ZM693.808 192.96C689.648 192.96 686.074 192.133 683.088 190.48C680.101 188.827 677.808 186.613 676.208 183.84C674.661 181.067 673.888 178 673.888 174.64V151.2H684.848V174.64C684.848 176.293 685.248 177.813 686.048 179.2C686.848 180.533 687.914 181.6 689.247 182.4C690.634 183.2 692.154 183.6 693.808 183.6C695.461 183.6 696.954 183.2 698.288 182.4C699.674 181.6 700.768 180.533 701.568 179.2C702.368 177.813 702.768 176.293 702.768 174.64V151.2H713.728V174.64C713.728 178 712.928 181.067 711.328 183.84C709.781 186.613 707.514 188.827 704.528 190.48C701.594 192.133 698.021 192.96 693.808 192.96Z" fill="#EEF0F2"/>
</svg>
