<svg width="200" height="200" viewBox="0 0 200 200" fill="none" xmlns="http://www.w3.org/2000/svg">
<path d="M29.504 167V152.264C29.504 150.376 29.936 148.648 30.8 147.08C31.664 145.512 32.912 144.264 34.544 143.336C36.176 142.408 38.144 141.944 40.448 141.944C41.568 141.944 42.688 142.104 43.808 142.424C44.928 142.712 45.968 143.224 46.928 143.96C47.888 144.664 48.656 145.624 49.232 146.84H49.28C49.92 145.624 50.72 144.664 51.68 143.96C52.64 143.224 53.68 142.712 54.8 142.424C55.92 142.104 57.056 141.944 58.208 141.944C60.48 141.944 62.432 142.408 64.064 143.336C65.696 144.264 66.944 145.512 67.808 147.08C68.672 148.648 69.104 150.376 69.104 152.264V167H64.688V152.264C64.688 151.048 64.4 149.944 63.824 148.952C63.248 147.96 62.464 147.176 61.472 146.6C60.512 146.024 59.408 145.736 58.16 145.736C56.944 145.736 55.824 146.04 54.8 146.648C53.776 147.224 52.96 148.008 52.352 149C51.776 149.96 51.488 151.048 51.488 152.264V167H47.072V152.264C47.072 151.048 46.768 149.96 46.16 149C45.584 148.008 44.784 147.224 43.76 146.648C42.768 146.04 41.648 145.736 40.4 145.736C39.184 145.736 38.08 146.024 37.088 146.6C36.128 147.176 35.36 147.96 34.784 148.952C34.208 149.944 33.92 151.048 33.92 152.264V167H29.504Z" fill="#353B3C"/>
<path d="M151.856 67C149.68 67 147.968 66.376 146.72 65.128C145.504 63.88 144.896 62.184 144.896 60.04V36.376H149.312V59.752C149.312 60.808 149.6 61.656 150.176 62.296C150.784 62.904 151.616 63.208 152.672 63.208H157.616V67H151.856ZM140.672 46.312V42.52H157.712V46.312H140.672Z" fill="#353B3C"/>
<path d="M0 25C0 11.1929 11.1929 0 25 0H75C88.8071 0 100 11.1929 100 25V100H25C11.1929 100 0 88.8071 0 75V25Z" fill="#353B3C"/>
<path d="M100 100H175C188.807 100 200 111.193 200 125V175C200 188.807 188.807 200 175 200H125C111.193 200 100 188.807 100 175V100Z" fill="#353B3C"/>
</svg>
