<svg width="14" height="14" viewBox="0 0 14 14" fill="none" xmlns="http://www.w3.org/2000/svg">
<path d="M4.40027 5.01929V7.33018" stroke="black" stroke-linecap="round" stroke-linejoin="round"/>
<path d="M5.55577 6.1748H3.24487" stroke="black" stroke-linecap="round" stroke-linejoin="round"/>
<path d="M1.25638 5.21192L0.84419 8.92165C0.693932 10.274 1.7525 11.4567 3.11314 11.4567C3.97784 11.4567 4.76833 10.9681 5.15504 10.1947L5.51444 9.47591H8.4856L8.845 10.1947C9.23171 10.9681 10.0222 11.4567 10.8869 11.4567C12.2475 11.4567 13.3061 10.274 13.1558 8.92165L12.7436 5.21192C12.5748 3.69262 11.2906 2.54321 9.76201 2.54321H4.23803C2.70939 2.54321 1.42519 3.69262 1.25638 5.21192Z" stroke="black" stroke-linejoin="round"/>
<path d="M10.4663 5.51448C10.3296 5.51448 10.2188 5.40363 10.2188 5.26688C10.2188 5.13014 10.3296 5.01929 10.4663 5.01929" stroke="black" stroke-linecap="round" stroke-linejoin="round"/>
<path d="M10.4663 5.51448C10.6031 5.51448 10.7139 5.40363 10.7139 5.26688C10.7139 5.13014 10.6031 5.01929 10.4663 5.01929" stroke="black" stroke-linecap="round" stroke-linejoin="round"/>
<path d="M8.73322 6.75248C8.73322 6.61574 8.84407 6.50488 8.98082 6.50488C9.11756 6.50488 9.22841 6.61574 9.22841 6.75248" stroke="black" stroke-linecap="round" stroke-linejoin="round"/>
<path d="M8.73328 6.75244C8.73328 6.88919 8.84413 7.00004 8.98088 7.00004C9.11762 7.00004 9.22847 6.88919 9.22847 6.75244" stroke="black" stroke-linecap="round" stroke-linejoin="round"/>
</svg>
