<svg width="200" height="200" viewBox="0 0 200 200" fill="none" xmlns="http://www.w3.org/2000/svg">
<path d="M30.504 167V152.264C30.504 150.376 30.936 148.648 31.8 147.08C32.664 145.512 33.912 144.264 35.544 143.336C37.176 142.408 39.144 141.944 41.448 141.944C42.568 141.944 43.688 142.104 44.808 142.424C45.928 142.712 46.968 143.224 47.928 143.96C48.888 144.664 49.656 145.624 50.232 146.84H50.28C50.92 145.624 51.72 144.664 52.68 143.96C53.64 143.224 54.68 142.712 55.8 142.424C56.92 142.104 58.056 141.944 59.208 141.944C61.48 141.944 63.432 142.408 65.064 143.336C66.696 144.264 67.944 145.512 68.808 147.08C69.672 148.648 70.104 150.376 70.104 152.264V167H65.688V152.264C65.688 151.048 65.4 149.944 64.824 148.952C64.248 147.96 63.464 147.176 62.472 146.6C61.512 146.024 60.408 145.736 59.16 145.736C57.944 145.736 56.824 146.04 55.8 146.648C54.776 147.224 53.96 148.008 53.352 149C52.776 149.96 52.488 151.048 52.488 152.264V167H48.072V152.264C48.072 151.048 47.768 149.96 47.16 149C46.584 148.008 45.784 147.224 44.76 146.648C43.768 146.04 42.648 145.736 41.4 145.736C40.184 145.736 39.08 146.024 38.088 146.6C37.128 147.176 36.36 147.96 35.784 148.952C35.208 149.944 34.92 151.048 34.92 152.264V167H30.504Z" fill="#D9D9D9"/>
<path d="M151.856 67C149.68 67 147.968 66.376 146.72 65.128C145.504 63.88 144.896 62.184 144.896 60.04V36.376H149.312V59.752C149.312 60.808 149.6 61.656 150.176 62.296C150.784 62.904 151.616 63.208 152.672 63.208H157.616V67H151.856ZM140.672 46.312V42.52H157.712V46.312H140.672Z" fill="#D9D9D9"/>
<path d="M0 25C0 11.1929 11.1929 0 25 0H75C88.8071 0 100 11.1929 100 25V100H25C11.1929 100 0 88.8071 0 75V25Z" fill="#D9D9D9"/>
<path d="M100 100H175C188.807 100 200 111.193 200 125V175C200 188.807 188.807 200 175 200H125C111.193 200 100 188.807 100 175V100Z" fill="#D9D9D9"/>
</svg>
