<?xml version="1.0" encoding="utf-8"?>
<!-- Generator: Adobe Illustrator 16.0.0, SVG Export Plug-In . SVG Version: 6.00 Build 0)  -->
<!DOCTYPE svg PUBLIC "-//W3C//DTD SVG 1.1//EN" "http://www.w3.org/Graphics/SVG/1.1/DTD/svg11.dtd">
<svg version="1.1" id="Layer_1" xmlns="http://www.w3.org/2000/svg" xmlns:xlink="http://www.w3.org/1999/xlink" x="0px" y="0px"
	 width="342.666px" height="342.666px" viewBox="9 9 342.666 342.666" enable-background="new 9 9 342.666 342.666"
	 xml:space="preserve">
<path fill="#FFFFFF" d="M180.333,351.666C85.86,351.666,9,274.807,9,180.333C9,85.86,85.86,9,180.333,9
	c94.474,0,171.333,76.86,171.333,171.333C351.666,274.807,274.807,351.666,180.333,351.666z"/>
<g>
	<path fill="#003B4C" d="M331.451,128.262h-52.604c-11.306,0-20.505-9.197-20.505-20.501c0-11.306,9.199-20.501,20.505-20.501
		h31.155c-29.028-40.025-76.144-66.081-129.368-66.081c-88.224,0-159.743,71.52-159.743,159.744
		c0,88.225,71.52,159.745,159.743,159.745s159.743-71.521,159.743-159.745C340.378,162.464,337.21,144.756,331.451,128.262"/>
	<path fill="#00A5B5" d="M154.521,214.749c-5.094-8.986-7.679-19.115-7.679-30.1c0-9.427,1.789-18.214,5.307-26.198
		c-0.231-0.477-0.451-0.963-0.703-1.427c-3.643-6.757-8.783-11.98-15.277-15.522c-6.399-3.49-16.145-5.655-24.101-5.655
		c-7.954,0-17.699,2.165-24.099,5.655c-6.492,3.542-11.632,8.765-15.277,15.524c-3.588,6.661-5.408,14.71-5.408,23.923v39.159
		c0,3.363,1.198,6.341,3.465,8.609c2.267,2.266,5.245,3.463,8.607,3.463c3.366,0,6.344-1.197,8.604-3.463
		c2.27-2.266,3.469-5.242,3.469-8.609v-39.159c0-7.536,1.864-12.98,5.699-16.638c3.733-3.561,8.62-5.355,14.94-5.487
		c6.32,0.132,11.208,1.926,14.941,5.487c3.836,3.658,5.7,9.103,5.7,16.638v39.159c0,3.367,1.2,6.345,3.465,8.605
		c2.266,2.27,5.243,3.467,8.609,3.467c3.363,0,6.338-1.197,8.605-3.465c2.268-2.268,3.465-5.244,3.465-8.607V218.5
		C156.041,217.284,155.253,216.04,154.521,214.749"/>
	<path fill="#00A5B5" d="M241.381,87.263c-3.338,0-6.297,1.154-8.56,3.339c-2.299,2.222-3.516,5.242-3.516,8.733v46.136
		c-2.424-1.884-5.052-3.509-7.865-4.861c-5.822-2.792-12.184-4.209-18.903-4.209c-8.349,0-16.035,2.127-22.845,6.318
		c-6.789,4.176-12.195,10.017-16.07,17.36c-3.843,7.281-5.79,15.481-5.79,24.371c0,8.934,2.101,17.169,6.243,24.476
		c4.157,7.332,9.981,13.187,17.31,17.396c7.312,4.206,15.499,6.34,24.337,6.34c8.844,0,16.987-2.14,24.2-6.353
		c7.205-4.209,12.988-10.05,17.194-17.361c4.203-7.315,6.335-15.559,6.335-24.497V99.336c0-3.514-1.14-6.435-3.39-8.688
		C247.813,88.401,244.894,87.263,241.381,87.263 M218.08,207.097c-3.7,2.239-7.742,3.328-12.358,3.328
		c-4.615,0-8.658-1.089-12.359-3.328c-3.729-2.255-6.594-5.281-8.766-9.261c-2.16-3.95-3.257-8.451-3.257-13.384
		c0-4.92,1.093-9.39,3.248-13.289c2.17-3.927,5.041-6.936,8.774-9.194c3.705-2.242,7.746-3.33,12.359-3.33
		c4.612,0,8.656,1.088,12.358,3.328c3.72,2.252,6.56,5.25,8.678,9.165c2.114,3.908,3.187,8.389,3.187,13.32
		c0,4.943-1.074,9.457-3.193,13.417C224.628,201.833,221.793,204.853,218.08,207.097"/>
	<path fill="#FF5959" d="M278.901,137.039c-3.336,0-6.295,1.155-8.557,3.339c-2.301,2.221-3.516,5.242-3.516,8.735v70.837
		c0,3.365,1.197,6.344,3.464,8.605c2.267,2.27,5.243,3.469,8.608,3.469c3.492,0,6.512-1.215,8.734-3.518
		c2.184-2.26,3.338-5.221,3.338-8.558v-70.837c0-3.512-1.139-6.434-3.39-8.689C285.337,138.178,282.415,137.039,278.901,137.039"/>
	<path fill="#003B4C" d="M278.901,122.222c3.938,0,7.371-1.434,10.197-4.263c2.829-2.828,4.264-6.26,4.264-10.199
		c0-3.94-1.435-7.371-4.262-10.197c-2.828-2.83-6.261-4.264-10.199-4.264c-3.938,0-7.368,1.434-10.196,4.262
		c-2.829,2.828-4.265,6.259-4.265,10.199c0,3.939,1.436,7.371,4.264,10.199C271.533,120.788,274.964,122.222,278.901,122.222"/>
</g>
<rect x="457.749" y="48.748" fill="none" width="368.503" height="368.504"/>
<g>
	<rect x="67.361" y="248.98" fill="#F26A68" width="2.179" height="11.62"/>
	<path fill="#F26A68" d="M90.649,259.312c-1.061,1.028-2.425,1.55-4.207,1.55c-3.715,0-6.463-2.78-6.463-6.063
		c0-3.301,2.548-6.077,6.264-6.077c2.548,0,4.038,1.288,4.313,1.671l-1.151,1.506c-0.829-0.784-1.888-1.213-3.27-1.213
		c-2.256,0-3.821,1.764-3.821,4.175c0,2.258,1.871,4.036,4.143,4.036c1.782,0,2.809-0.658,3.193-1.011L90.649,259.312z"/>
	<polygon fill="#F26A68" points="103.377,260.601 103.377,250.962 99.953,250.962 99.953,248.997 108.996,248.997 108.996,250.962 
		105.557,250.962 105.557,260.601 	"/>
	<path fill="#F26A68" d="M131.549,257.639c0.599,0.552,1.687,1.26,2.993,1.26c1.183,0,1.813-0.553,1.813-1.396
		c0-2.456-5.159-2.076-5.159-5.62c0-2.072,1.858-3.178,3.793-3.178c1.795,0,3.07,1.105,3.301,1.353l-1.061,1.626
		c-0.598-0.599-1.442-1.027-2.226-1.027c-0.782,0-1.535,0.337-1.535,1.135c0,2.043,5.204,1.581,5.204,5.679
		c0,1.798-1.579,3.396-4.298,3.396c-1.673,0-3.333-1-3.962-1.661L131.549,257.639z"/>
	<path fill="#F26A68" d="M154.87,260.862c-3.547,0-6.387-2.749-6.387-6.063c0-3.334,2.84-6.077,6.387-6.077
		c3.5,0,6.339,2.623,6.339,6.123C161.209,258.145,158.293,260.862,154.87,260.862 M154.87,250.683c-2.227,0-4.069,1.781-4.069,4.053
		c0,2.182,1.795,4.177,3.961,4.177c2.303,0,4.115-1.812,4.115-4.082C158.877,252.464,157.033,250.683,154.87,250.683"/>
	<polygon fill="#F26A68" points="171.635,260.586 171.635,248.98 173.813,248.98 173.813,258.605 178.664,258.605 178.664,260.586 	
		"/>
	<path fill="#F26A68" d="M195.829,248.98h2.18v10.193c-0.903,0.936-2.44,1.702-4.818,1.702c-3.071,0-4.791-1.503-4.791-4.558v-7.338
		h2.18v6.078c0,2.918,0.6,3.868,2.962,3.868c0.938,0,1.721-0.243,2.288-0.611V248.98L195.829,248.98z"/>
	<polygon fill="#F26A68" points="211.444,260.601 211.444,250.962 208.021,250.962 208.021,248.997 217.062,248.997 
		217.062,250.962 213.623,250.962 213.623,260.601 	"/>
	<rect x="227.12" y="248.98" fill="#F26A68" width="2.179" height="11.62"/>
	<path fill="#F26A68" d="M246.107,260.862c-3.546,0-6.384-2.749-6.384-6.063c0-3.334,2.838-6.077,6.384-6.077
		c3.503,0,6.342,2.623,6.342,6.123C252.449,258.145,249.531,260.862,246.107,260.862 M246.107,250.683
		c-2.225,0-4.067,1.781-4.067,4.053c0,2.182,1.797,4.177,3.963,4.177c2.302,0,4.115-1.812,4.115-4.082
		C250.116,252.464,248.274,250.683,246.107,250.683"/>
	<polygon fill="#F26A68" points="265.009,253.509 265.039,260.603 262.859,260.603 262.892,248.659 271.424,256.381 271.412,248.98 
		273.589,248.98 273.56,261.031 	"/>
	<path fill="#F26A68" d="M284.874,257.639c0.601,0.552,1.69,1.26,2.994,1.26c1.183,0,1.812-0.553,1.812-1.396
		c0-2.456-5.157-2.076-5.157-5.62c0-2.072,1.856-3.178,3.792-3.178c1.796,0,3.068,1.105,3.3,1.353l-1.061,1.626
		c-0.6-0.599-1.443-1.027-2.227-1.027c-0.781,0-1.532,0.337-1.532,1.135c0,2.043,5.205,1.581,5.205,5.679
		c0,1.798-1.581,3.396-4.301,3.396c-1.674,0-3.331-1-3.962-1.661L284.874,257.639z"/>
</g>
</svg>
