<svg width="14" height="14" viewBox="0 0 14 14" fill="none" xmlns="http://www.w3.org/2000/svg">
<g clip-path="url(#clip0_1222_31933)">
<path d="M7 13.5C10.5899 13.5 13.5 10.5899 13.5 7C13.5 3.41015 10.5899 0.5 7 0.5C3.41015 0.5 0.5 3.41015 0.5 7C0.5 10.5899 3.41015 13.5 7 13.5Z" stroke="black" stroke-linecap="round" stroke-linejoin="round"/>
<path d="M7 0.5V13.5" stroke="black" stroke-linecap="round" stroke-linejoin="round"/>
<path d="M2.09998 11.27C2.83271 10.8239 3.43836 10.1968 3.85867 9.449C4.27899 8.70119 4.49983 7.85782 4.49998 6.99998C4.49983 6.14214 4.27899 5.29877 3.85867 4.55096C3.43836 3.80315 2.83271 3.17606 2.09998 2.72998" stroke="black" stroke-linecap="round" stroke-linejoin="round"/>
<path d="M11.9 2.72998C11.1675 3.17622 10.5621 3.80339 10.1421 4.55119C9.72198 5.29899 9.50134 6.14227 9.50134 6.99998C9.50134 7.85769 9.72198 8.70097 10.1421 9.44877C10.5621 10.1966 11.1675 10.8237 11.9 11.27" stroke="black" stroke-linecap="round" stroke-linejoin="round"/>
</g>
<defs>
<clipPath id="clip0_1222_31933">
<rect width="14" height="14" fill="white"/>
</clipPath>
</defs>
</svg>
